<svg height="128" width="128" xml:space="preserve" xmlns:xlink="http://www.w3.org/1999/xlink" xmlns="http://www.w3.org/2000/svg"><defs><linearGradient id="m"><stop offset="0" style="stop-color:#fff;stop-opacity:1"/><stop offset=".188" style="stop-color:#fff;stop-opacity:.3263211"/><stop offset=".813" style="stop-color:#fff;stop-opacity:.15686275"/><stop offset="1" style="stop-color:#fff;stop-opacity:.39215687"/></linearGradient><linearGradient id="l"><stop offset="0" style="stop-color:#fff;stop-opacity:1"/><stop offset="0" style="stop-color:#fff;stop-opacity:.23529412"/><stop offset="1" style="stop-color:#fff;stop-opacity:.15686275"/><stop offset="1" style="stop-color:#fff;stop-opacity:.39215687"/></linearGradient><linearGradient id="k"><stop offset="0" style="stop-color:#fff;stop-opacity:1"/><stop offset=".036" style="stop-color:#fff;stop-opacity:.23529412"/><stop offset=".964" style="stop-color:#fff;stop-opacity:.15686275"/><stop offset="1" style="stop-color:#fff;stop-opacity:.39215687"/></linearGradient><linearGradient id="j"><stop offset="0" style="stop-color:#fff;stop-opacity:.39215687"/><stop offset=".02" style="stop-color:#fff;stop-opacity:.15686275"/><stop offset=".982" style="stop-color:#fff;stop-opacity:.23529412"/></linearGradient><linearGradient id="h"><stop offset="0" style="stop-color:#fff;stop-opacity:1"/><stop offset=".049" style="stop-color:#fff;stop-opacity:.23529412"/><stop offset=".952" style="stop-color:#fff;stop-opacity:.15686275"/><stop offset="1" style="stop-color:#fff;stop-opacity:.39215687"/></linearGradient><linearGradient id="f"><stop offset="0" style="stop-color:#fff;stop-opacity:1"/><stop offset=".123" style="stop-color:#fff;stop-opacity:.23529412"/><stop offset=".875" style="stop-color:#fff;stop-opacity:.15686275"/><stop offset="1" style="stop-color:#fff;stop-opacity:.39215687"/></linearGradient><linearGradient id="d"><stop offset="0" style="stop-color:#fff;stop-opacity:1"/><stop offset=".058" style="stop-color:#fff;stop-opacity:.23529412"/><stop offset=".927" style="stop-color:#fff;stop-opacity:.15686275"/><stop offset="1" style="stop-color:#fff;stop-opacity:.39215687"/></linearGradient><linearGradient id="c"><stop offset="0" style="stop-color:#fff;stop-opacity:.23529412"/><stop offset="1" style="stop-color:#fff;stop-opacity:.15686275"/><stop offset="1" style="stop-color:#fff;stop-opacity:.39215687"/></linearGradient><linearGradient id="b"><stop offset="0" style="stop-color:#fff;stop-opacity:1"/><stop offset=".077" style="stop-color:#fff;stop-opacity:.3263211"/><stop offset=".923" style="stop-color:#fff;stop-opacity:.15686275"/><stop offset="1" style="stop-color:#fff;stop-opacity:.39215687"/></linearGradient><linearGradient id="a"><stop style="stop-color:#e7c591;stop-opacity:1" offset="0"/><stop style="stop-color:#cfa25e;stop-opacity:1" offset="1"/></linearGradient><linearGradient id="o"><stop style="stop-color:#000;stop-opacity:1" offset="0"/><stop style="stop-color:#000;stop-opacity:0" offset="1"/></linearGradient><linearGradient id="i"><stop style="stop-color:#64baff;stop-opacity:1" offset="0"/><stop style="stop-color:#8cd5ff;stop-opacity:1" offset="1"/></linearGradient><linearGradient id="p"><stop offset="0" style="stop-color:#181818;stop-opacity:1"/><stop offset="1" style="stop-color:#181818;stop-opacity:0"/></linearGradient><linearGradient id="n"><stop offset="0" style="stop-color:#181818;stop-opacity:0"/><stop offset=".5" style="stop-color:#181818;stop-opacity:1"/><stop offset="1" style="stop-color:#181818;stop-opacity:0"/></linearGradient><linearGradient id="e"><stop style="stop-color:#f4f4f4;stop-opacity:1" offset="0"/><stop style="stop-color:#dadada;stop-opacity:1" offset="1"/></linearGradient><linearGradient id="g"><stop offset="0" style="stop-color:#f4f4f4;stop-opacity:1"/><stop offset="1" style="stop-color:#dbdbdb;stop-opacity:1"/></linearGradient><linearGradient xlink:href="#a" id="u" x1="36" y1="15" x2="36" y2="79" gradientUnits="userSpaceOnUse" gradientTransform="translate(.5 .5)"/><linearGradient xlink:href="#b" id="v" x1="32" y1="93" x2="32" y2="119" gradientUnits="userSpaceOnUse"/><linearGradient xlink:href="#b" id="w" gradientUnits="userSpaceOnUse" x1="32" y1="93" x2="32" y2="119" gradientTransform="translate(49)"/><linearGradient xlink:href="#c" id="t" x1="41" y1="92" x2="41" y2="106" gradientUnits="userSpaceOnUse"/><linearGradient xlink:href="#d" id="x" x1="46" y1="17" x2="46" y2="78" gradientUnits="userSpaceOnUse"/><linearGradient xlink:href="#e" id="y" x1="48" y1="61" x2="48" y2="91" gradientUnits="userSpaceOnUse"/><linearGradient xlink:href="#f" id="z" x1="48" y1="62" x2="48" y2="90" gradientUnits="userSpaceOnUse"/><linearGradient xlink:href="#g" id="q" x1="95.75" y1="31" x2="95.75" y2="107" gradientUnits="userSpaceOnUse"/><linearGradient xlink:href="#h" id="s" x1="96" y1="32" x2="96" y2="106" gradientUnits="userSpaceOnUse"/><linearGradient xlink:href="#i" id="A" x1="106.5" y1="41" x2="106.5" y2="71" gradientUnits="userSpaceOnUse"/><linearGradient xlink:href="#j" id="B" x1="106" y1="70" x2="106" y2="42" gradientUnits="userSpaceOnUse"/><linearGradient xlink:href="#k" id="C" x1="111" y1="94" x2="111" y2="108" gradientUnits="userSpaceOnUse"/><linearGradient xlink:href="#l" id="r" x1="97.5" y1="39" x2="97.5" y2="99.002" gradientUnits="userSpaceOnUse"/><linearGradient xlink:href="#g" id="D" x1="106" y1="65" x2="106" y2="73" gradientUnits="userSpaceOnUse"/><linearGradient xlink:href="#m" id="E" x1="106" y1="65" x2="106" y2="73" gradientUnits="userSpaceOnUse"/><linearGradient xlink:href="#n" id="I" gradientUnits="userSpaceOnUse" x1="25.058" y1="47.028" x2="25.058" y2="39.999"/><radialGradient gradientTransform="matrix(1.5564 0 0 .16979 282.27 102.13)" gradientUnits="userSpaceOnUse" xlink:href="#o" id="F" fy="93.468" fx="-4.029" r="35.338" cy="93.468" cx="-4.029"/><radialGradient gradientTransform="matrix(2.00378 0 0 1.4 27.988 -17.4)" gradientUnits="userSpaceOnUse" xlink:href="#p" id="G" fy="43.5" fx="4.993" r="2.5" cy="43.5" cx="4.993"/><radialGradient gradientTransform="matrix(2.00378 0 0 1.4 -20.012 -104.4)" gradientUnits="userSpaceOnUse" xlink:href="#p" id="H" fy="43.5" fx="4.993" r="2.5" cy="43.5" cx="4.993"/></defs><path style="opacity:1;fill:url(#q);stroke:none;stroke-linejoin:round;stroke-opacity:1" d="M81 31h29.5a4.49 4.49 0 0 1 4.5 4.5V107H81Z"/><path style="opacity:1;fill:none;stroke:url(#r);stroke-linejoin:round" d="M88.5 38.5h19v61h-8.113A19.479 19.479 0 0 0 88.5 87.998Z"/><path style="opacity:1;fill:none;stroke:#000;stroke-linejoin:round;stroke-opacity:.14572" d="M87.5 37.5v51.17a18.484 18.484 0 0 1 11.172 11.83h9.828v-63z"/><path style="opacity:1;fill:none;fill-opacity:1;stroke:url(#s);stroke-linejoin:round;stroke-opacity:1" d="M81.5 31.5h29c2.217 0 4 1.783 4 4v71h-33z"/><rect style="opacity:1;fill:#485a6c;fill-opacity:1;stroke:#273445;stroke-linejoin:round;stroke-opacity:.298302" width="68" height="17" x="12.5" y="90.5" rx="0" ry="0"/><path style="opacity:.25029012;fill:none;fill-opacity:1;stroke:url(#t);stroke-width:1;stroke-linejoin:round;stroke-dasharray:none" d="M13.5 91v15.5h66v-15"/><circle style="opacity:.149867;fill:#000;fill-opacity:1;stroke:#000;stroke-width:2;stroke-linejoin:round;stroke-dasharray:none;stroke-opacity:1" cx="81" cy="104.473" r="13.5"/><circle style="opacity:.149867;fill:#000;fill-opacity:1;stroke:none;stroke-width:1.01803;stroke-linejoin:round;stroke-opacity:1" cx="81" cy="104.473" r="13.5"/><circle style="opacity:.149867;fill:#000;fill-opacity:1;stroke:#000;stroke-width:2;stroke-linejoin:round;stroke-dasharray:none;stroke-opacity:1" cx="31.963" cy="104.5" r="13.5"/><circle style="opacity:.149867;fill:#000;fill-opacity:1;stroke:none;stroke-width:1.01803;stroke-linejoin:round;stroke-opacity:1" cx="31.963" cy="104.5" r="13.5"/><rect style="opacity:1;fill:url(#u);stroke:#804b00;stroke-linejoin:round;stroke-opacity:.498039" width="64" height="64" x="12.5" y="15.5" rx="5" ry="5"/><path style="opacity:.299967;fill:#fff;stroke-linejoin:round;stroke-opacity:.498039" d="M38 16h13v12l-3-2-3.5 2-3.5-2-3 2Z"/><rect style="opacity:1;fill:none;fill-opacity:1;stroke:#000;stroke-linejoin:round;stroke-opacity:.298302" width="77" height="31" x="8.5" y="60.5" rx="5" ry="5"/><path style="opacity:1;fill:none;stroke:#000;stroke-linejoin:round;stroke-opacity:.298302" d="M110.5 30.5c2.77 0 5 2.23 5 5v72h-35v-77z"/><circle style="opacity:1;fill:#1a1a1a;fill-opacity:1;stroke:#000;stroke-width:1.01803;stroke-linejoin:round;stroke-opacity:.298302" cx="32" cy="106" r="13.5"/><circle style="opacity:.500359;fill:#1a1a1a;fill-opacity:1;stroke:url(#v);stroke-width:1;stroke-linejoin:round;stroke-dasharray:none;stroke-opacity:1" cx="32" cy="106" r="12.5"/><circle style="opacity:1;fill:#4d4d4d;fill-opacity:1;stroke:#000;stroke-width:1;stroke-linejoin:round;stroke-dasharray:none;stroke-opacity:1" cx="32" cy="106" r="7.5"/><circle style="opacity:1;fill:#666;fill-opacity:1;stroke:none;stroke-width:.857145;stroke-linejoin:round;stroke-dasharray:none;stroke-opacity:1" cx="32" cy="103" r="3"/><circle style="fill:#1a1a1a;fill-opacity:1;stroke:#000;stroke-width:1.01803;stroke-linejoin:round;stroke-opacity:.298302" cx="81" cy="106" r="13.5"/><circle style="opacity:.500359;fill:#1a1a1a;fill-opacity:1;stroke:url(#w);stroke-width:1;stroke-linejoin:round;stroke-dasharray:none;stroke-opacity:1" cx="81" cy="106" r="12.5"/><circle style="fill:#4d4d4d;fill-opacity:1;stroke:#000;stroke-width:1;stroke-linejoin:round;stroke-dasharray:none;stroke-opacity:1" cx="81" cy="106" r="7.5"/><circle style="fill:#666;fill-opacity:1;stroke:none;stroke-width:.857145;stroke-linejoin:round;stroke-dasharray:none;stroke-opacity:1" cx="81" cy="103" r="3"/><rect style="opacity:.49978;fill:none;fill-opacity:1;stroke:url(#x);stroke-width:1;stroke-linejoin:round;stroke-dasharray:none;stroke-opacity:1" width="62" height="62" x="13.5" y="16.5" rx="4" ry="4"/><rect style="opacity:1;fill:url(#y);stroke:none;stroke-width:1;stroke-linejoin:round;stroke-dasharray:none;stroke-opacity:1" width="76" height="30" x="9" y="61" rx="4.5" ry="4.5"/><rect style="opacity:1;fill:none;fill-opacity:1;stroke:url(#z);stroke-width:1;stroke-linejoin:round;stroke-dasharray:none" width="75" height="29" x="9.5" y="61.5" rx="4" ry="4"/><path style="opacity:.12013;fill:none;fill-opacity:1;stroke:#000;stroke-width:1;stroke-linejoin:round;stroke-dasharray:none;stroke-opacity:1" d="M9 70.5h76"/><path style="opacity:.322917;fill:none;fill-opacity:1;stroke:#fff;stroke-width:1;stroke-linejoin:round;stroke-dasharray:none;stroke-opacity:1" d="M85 71.5H9"/><rect style="opacity:1;fill:url(#A);fill-opacity:1;stroke:#3689e6;stroke-width:1;stroke-linejoin:round;stroke-dasharray:none;stroke-opacity:.501961" width="22.984" height="31" x="94.5" y="40.5" rx="2" ry="2"/><circle style="opacity:.150169;fill:#000;fill-opacity:1;stroke:#000;stroke-width:2;stroke-linecap:round;stroke-linejoin:round;stroke-dasharray:none;stroke-opacity:1" cx="106" cy="70" r="4"/><path style="opacity:.700337;fill:none;fill-opacity:1;stroke:url(#B);stroke-width:1;stroke-linejoin:round;stroke-dasharray:none;stroke-opacity:1" d="M95.5 42v27.5c0 .5.5 1 1 1l19-.002c.5.002 1-.498 1-.998V42"/><rect style="opacity:1;fill:#485a6c;fill-opacity:1;stroke:#273445;stroke-width:1;stroke-linejoin:round;stroke-dasharray:none;stroke-opacity:.503785" width="13" height="17" x="104.5" y="92.5" rx="2" ry="2"/><rect style="opacity:.24973177;fill:#485a6c;fill-opacity:1;stroke:url(#C);stroke-width:1;stroke-linejoin:round;stroke-dasharray:none;stroke-opacity:1" width="11" height="15" x="105.5" y="93.5" rx="1" ry="1"/><path style="opacity:1;fill:none;stroke:#fff;stroke-linecap:round;stroke-linejoin:round;stroke-opacity:.197496" d="M99.387 99.5A19.479 19.479 0 0 0 88.5 87.998"/><circle style="opacity:.149857;fill:#000;fill-opacity:1;stroke:none;stroke-width:1;stroke-linecap:round;stroke-linejoin:round;stroke-dasharray:none;stroke-opacity:1" cx="106" cy="70" r="4"/><circle style="opacity:.299861;fill:none;fill-opacity:1;stroke:#000;stroke-width:1;stroke-linecap:round;stroke-linejoin:round;stroke-dasharray:none;stroke-opacity:1" cx="106" cy="69" r="4.5"/><circle style="opacity:1;fill:url(#D);stroke:none;stroke-width:1;stroke-linecap:round;stroke-linejoin:round;stroke-dasharray:none;stroke-opacity:1" cx="106" cy="69" r="4"/><circle style="opacity:1;fill:#fff;fill-opacity:.49577;stroke:none;stroke-width:1.33825;stroke-linecap:round;stroke-linejoin:round;stroke-dasharray:none;stroke-opacity:1" cx="106" cy="67" r="2"/><circle style="opacity:1;fill:none;fill-opacity:1;stroke:url(#E);stroke-width:1;stroke-linecap:round;stroke-linejoin:round;stroke-dasharray:none" cx="106" cy="69" r="3.5"/><path d="M331 118a55 6 0 0 1-110 0 55 6 0 1 1 110 0z" style="color:#000;display:inline;overflow:visible;visibility:visible;opacity:.2;fill:url(#F);fill-opacity:1;fill-rule:nonzero;stroke:none;stroke-width:1;marker:none;enable-background:accumulate" transform="translate(-212)"/><g style="display:inline"><g style="opacity:.4"><path style="fill:url(#G);fill-opacity:1;stroke:none" d="M38 40h5v7h-5z" transform="matrix(2.8421 0 0 .71429 -4.21 87.429)"/><path transform="matrix(-2.8421 0 0 -.71429 -4.21 87.429)" style="fill:url(#H);fill-opacity:1;stroke:none" d="M-10-47h5v7h-5z"/><path style="fill:url(#I);fill-opacity:1;stroke:none" d="M10 40h28v7H10z" transform="matrix(2.8421 0 0 .71429 -4.21 87.429)"/></g></g><path style="opacity:.25029;fill:#cfa25e;stroke:#fff;stroke-width:1;stroke-linecap:round;stroke-linejoin:round;stroke-dasharray:none;stroke-opacity:1" d="m99.5 50.5 5-5m0 8-7 7m16-9-5 5m2 3-3 3"/></svg>